/* XPM */
static const char * gatotray_xpm[] = {
"24 24 21 1",
" 	c None",
".	c #EFEBEF",
"+	c #FFFFFF",
"@	c #000000",
"#	c #DE2000",
"$	c #E71C00",
"%	c #B54900",
"&	c #906FE0",
"*	c #AD5500",
"=	c #7B8600",
"-	c #4AB200",
";	c #52AE00",
">	c #00FF00",
",	c #4AB600",
"'	c #42BE00",
")	c #39C700",
"!	c #42BA00",
"~	c #00FB00",
"{	c #08F300",
"]	c #18E300",
"^	c #31CF00",
"........................",
".++++++++++++++++++++++.",
".+++@@+++++++++++++++++.",
".++@++@++++++++++++++++.",
".++@++@+++++++++#$+++++.",
".++@++@+++++++++#$+++++.",
".++@++@+++++++++#$+++++.",
".++@++@++++++++%#$+++++.",
".++@++@++++++++%#$+++++.",
".++@++@++++++++%#$+++++.",
".++@&&@++++++++%#$*++++.",
".++@&&@+++++++=%#$*++++.",
".++@&&@+++++++=%#$*++++.",
".++@&&@+++++++=%#$*++++.",
".++@&&@++++++-=%#$*++++.",
".++@&&@+;;+++-=%#$*++>+.",
".++@&&@,;;'')-=%#$*++>+.",
".+@&&&&@;;'')-=%#$*!+>+.",
".+@&&&&@;;'')-=%#$*!+>+.",
".+@&&&&@;;'')-=%#$*!+>+.",
".+@&&&&@;;'')-=%#$*!~>+.",
".>>@@@@,;;'')-=%#$*!~>+.",
".>>~{]^,;;'')-=%#$*!~>>.",
"........................"};
